<svg width="54" height="64" viewBox="0 0 54 64" fill="none" xmlns="http://www.w3.org/2000/svg">
<path fill-rule="evenodd" clip-rule="evenodd" d="M18.6334 0.0053877C6.72652 0.290412 -2.39506 8.63757 0.560987 21.4365C1.97929 25.8263 4.59454 29.3629 9.08892 29.3629C13.8124 29.3629 17.6399 25.5355 17.6399 20.8122C17.6399 16.6318 14.6703 13.1572 10.7303 12.3972C9.16075 11.8407 6.80513 10.5784 6.90814 8.54256C6.95693 7.53819 8.13204 5.7059 10.0173 4.78297C12.3093 3.71073 14.6717 3.12709 17.0571 3.6157C20.6718 4.28076 29.9181 10.9313 30.6365 22.4545C31.0566 31.1952 26.1502 43.0169 21.3536 48.6088C13.6307 57.4446 1.22512 62.9279 2.43952 63.9052C3.52787 64.8824 18.1753 58.1775 25.8019 49.7625C35.1091 39.6645 39.7174 31.2495 39.2701 21.0293C39.0126 10.7956 31.0973 -0.279637 18.6334 0.0053877Z" fill="black"/>
<path fill-rule="evenodd" clip-rule="evenodd" d="M54 28.9453C54 30.5314 53.3318 32.0525 52.1423 33.174C50.9529 34.2955 49.3397 34.9255 47.6576 34.9255C45.9755 34.9255 44.3623 34.2955 43.1728 33.174C41.9834 32.0525 41.3152 30.5314 41.3152 28.9453C41.3152 27.3593 41.9834 25.8382 43.1728 24.7166C44.3623 23.5951 45.9755 22.9651 47.6576 22.9651C49.3397 22.9651 50.9529 23.5951 52.1423 24.7166C53.3318 25.8382 54 27.3593 54 28.9453Z" fill="black"/>
<path fill-rule="evenodd" clip-rule="evenodd" d="M54 8.98785C54 10.5339 53.3318 12.055 52.1423 13.2165C50.9529 14.298 49.3397 14.9281 47.6576 14.9681C45.9755 14.9281 44.3623 14.298 43.1728 13.2165C41.9834 12.055 41.3152 10.5339 41.3152 8.98785C41.3152 7.3618 41.9834 5.8407 43.1728 4.75919C44.3623 3.59768 45.9755 2.96762 47.6576 3.00762C49.3397 2.96762 50.9529 3.59768 52.1423 4.75919C53.3318 5.8407 54 7.3618 54 8.98785Z" fill="black"/>
</svg>
