<svg width="32" height="20" viewBox="0 0 32 20" fill="none" xmlns="http://www.w3.org/2000/svg">
<path d="M19.3461 18.3438C14.3512 18.0842 10.4479 13.7296 8.88171 9.22651C7.93279 6.58354 8.45396 2.61853 11.6152 1.87613C16.1953 1.11213 19.9959 4.93343 22.126 8.59017C23.6434 11.3024 24.4823 15.5734 21.6372 17.7233C20.9617 18.1682 20.1451 18.3468 19.3461 18.3438ZM27.3031 2.90571C21.6757 -0.451149 14.567 -0.712596 8.40475 1.16603C4.50124 2.50646 0.0369177 5.35775 1.27359e-06 9.99852C-0.00270418 14.5455 4.30543 17.3822 8.11777 18.7332C14.1532 20.6722 21.117 20.5017 26.7521 17.4106C29.9418 15.7439 32.769 12.2924 31.8103 8.46688C31.2831 6.00697 29.3645 4.16637 27.3031 2.90571Z" fill="black"/>
</svg>
