<svg width="16" height="44" viewBox="0 0 16 44" fill="none" xmlns="http://www.w3.org/2000/svg">
<path d="M10.2374 28.3488C10.2374 30.2949 9.55178 32.1589 7.67089 34.6606C5.67825 37.311 4.00087 38.8279 1.79059 40.6116V28.9952C2.29307 27.6447 3.03407 26.5515 4.01677 25.7121C4.99629 24.8761 5.98855 24.4564 6.99351 24.4564C8.65361 24.4564 9.70625 25.4583 10.161 27.4552C10.2119 27.6177 10.2374 27.9155 10.2374 28.3488ZM9.99886 20.2256C8.62816 20.2256 7.2352 20.6284 5.8168 21.4373C4.39841 22.2428 3.05633 23.3226 1.79059 24.6663V0.496244C1.79059 0.496244 1.77535 0.126661 1.49459 0.0544674C1.21383 -0.0177264 0.576103 -0.0185686 0.283353 0.0544674C-0.00939566 0.127503 0.000110935 0.496244 0.000110935 0.496244L8.54864e-05 42.2092C8.54864e-05 43.4006 0.305397 43.9962 0.916008 43.9962C1.26902 43.9962 1.70762 43.6814 2.36303 43.2651C4.21821 42.0868 5.37453 41.2994 6.63094 40.4686C8.06402 39.5211 9.67765 38.4146 11.8116 36.2484C13.2841 34.6746 14.3494 33.0872 15.0109 31.4896C15.6693 29.8887 16 28.3047 16 26.7308C16 24.4022 15.418 22.7472 14.254 21.7691C12.9374 20.7401 11.5158 20.2256 9.99886 20.2256Z" fill="black"/>
</svg>
