<svg width="56" height="82" viewBox="0 0 56 82" fill="none" xmlns="http://www.w3.org/2000/svg">
<path d="M0.456709 81.9073C0.345018 81.859 0.196572 81.7263 0.126812 81.6124L0 81.4055L0.0155665 40.9229L0.031133 0.440332L0.236632 0.235686L0.442145 0.0310525L5.64309 0.0122627C10.4955 -0.00525931 10.8581 0.000810339 11.0532 0.102971C11.1682 0.163194 11.3026 0.289968 11.3518 0.384687C11.4289 0.533091 11.4412 6.14636 11.441 40.9812V81.4055L11.3142 81.6127C11.0684 82.0141 11.2681 82.0004 5.70701 81.9977C1.516 81.9957 0.625578 81.9803 0.456951 81.9073H0.456709ZM15.2805 81.8905C15.162 81.8303 15.0064 81.7015 14.9348 81.6043L14.8046 81.4276V41.011C14.8046 2.48961 14.8098 0.584934 14.9157 0.392046C15.11 0.0380404 15.2662 -0.000261209 16.5146 1.32976e-06C17.5117 0.000143295 17.6554 0.0134676 17.8338 0.121832C17.944 0.188715 18.0713 0.308324 18.1167 0.38763C18.1844 0.505693 18.2023 4.04495 18.2155 19.9209C18.2244 30.5848 18.2543 39.3099 18.2818 39.3099C18.3459 39.3099 19.4366 38.0975 19.9872 37.4142C22.0751 34.8231 23.7023 31.5377 24.4547 28.394C24.8383 26.7911 25.079 24.9636 25.0822 23.6296C25.0846 22.6098 25.2295 22.2194 25.6855 22.0039C25.964 21.8723 26.4574 21.8682 26.7044 21.9953C26.9727 22.1335 27.2726 22.5014 27.3084 22.7363C27.3256 22.8489 27.3551 23.3078 27.3739 23.7561C27.52 27.2301 28.8062 30.4134 30.9296 32.5568C31.7588 33.3938 32.4509 33.8986 33.4128 34.3681C34.768 35.0294 36.0215 35.2832 37.6248 35.2208C39.3928 35.152 40.6544 34.7933 41.8438 34.0213C43.6292 32.8626 44.7115 30.8043 45.2563 27.5317C45.5606 25.7039 45.6682 23.8943 45.6689 20.5937C45.6703 17.0717 45.5642 15.3618 45.1936 12.8945C44.2903 6.88055 41.6406 3.49829 37.1283 2.59937C35.6285 2.30059 34.0548 2.22792 33.1435 2.41537C31.8583 2.67969 30.885 3.34818 30.4259 4.2818C30.189 4.76377 30.1068 5.13391 30.0686 5.89209C30.039 6.47882 30.0443 6.50899 30.2659 7.01069C30.6688 7.92317 31.1608 8.36578 32.2184 8.7674C32.708 8.95329 32.8402 9.03767 33.1996 9.39372C34.1705 10.3554 34.3975 11.5483 33.9449 13.3102C33.7125 14.2152 33.1358 15.2407 32.4471 15.9737C29.9986 18.58 25.9026 18.6121 23.4453 16.0442C22.6473 15.2104 22.1333 14.2938 21.8368 13.1762C21.6913 12.628 21.6707 12.4296 21.671 11.58C21.671 10.4752 21.7463 9.85746 22.0033 8.84444C23.0008 4.91185 26.2148 1.72305 30.3896 0.523966C31.9021 0.089532 32.4148 0.030933 34.6702 0.0346727C36.7536 0.0381149 37.9817 0.122216 39.6848 0.37804C46.7909 1.44542 51.6484 4.7685 54.0774 10.2243C55.2784 12.9219 55.906 16.0718 55.9799 19.7727C56.008 21.1767 55.9521 22.0308 55.7561 23.1915C55.0639 27.2922 52.7814 30.9314 49.2236 33.6066C46.0463 35.9957 42.0952 37.3679 37.9077 37.5363C36.2537 37.6029 35.785 37.4695 33.3407 36.2369C32.3995 35.7622 31.4471 35.3178 31.2243 35.2493C29.3753 34.6807 27.8017 35.2336 27.0122 36.7295C26.7021 37.3172 26.5666 37.7187 26.4122 38.5079C26.2381 39.3983 26.2018 39.8517 26.2059 41.0891C26.2158 44.104 26.9641 45.9639 28.4486 46.6632C28.9293 46.8896 29.4144 46.9666 30.1124 46.9272C31.0574 46.8738 31.4237 46.7301 34.0746 45.3734C34.5768 45.1163 35.2699 44.8088 35.6148 44.69L36.2418 44.474L37.6563 44.478C39.17 44.4823 40.0408 44.5783 41.5883 44.9115C47.2248 46.1249 51.9965 49.6916 54.318 54.4267C54.909 55.6321 55.1963 56.3906 55.4763 57.4849C55.9053 59.1615 56.0489 60.5578 55.9858 62.4389C55.8659 66.0172 55.2788 68.9789 54.1832 71.5327C51.7761 77.1436 46.8976 80.5384 39.6848 81.6218C37.9817 81.8776 36.7536 81.9617 34.6702 81.9652C32.4148 81.9689 31.9021 81.9103 30.3896 81.4759C26.2148 80.2768 23.0008 77.088 22.0033 73.1554C21.7463 72.1424 21.6713 71.5247 21.671 70.4199C21.671 69.5702 21.6913 69.3719 21.8368 68.8237C22.1333 67.706 22.6473 66.7895 23.4453 65.9556C25.9026 63.3878 29.9986 63.4199 32.4471 66.0262C33.1358 66.7591 33.7125 67.7847 33.9449 68.6897C34.3975 70.4516 34.1705 71.6445 33.1996 72.6061C32.8402 72.9622 32.708 73.0466 32.2184 73.2325C31.1607 73.6341 30.6688 74.0767 30.2659 74.9892C30.0443 75.4909 30.039 75.521 30.0686 76.1078C30.1068 76.866 30.189 77.2361 30.4259 77.7181C30.885 78.6517 31.8583 79.3202 33.1435 79.5845C34.3871 79.8403 36.9111 79.5884 38.4485 79.0548C39.216 78.7885 40.164 78.3068 40.7563 77.8822C41.3967 77.423 42.3626 76.4203 42.8505 75.708C44.4284 73.4044 45.29 70.1267 45.5734 65.3496C45.7331 62.6581 45.707 58.8795 45.5127 56.555C44.9547 49.8803 42.6089 46.973 37.6248 46.7791C36.0215 46.7167 34.768 46.9705 33.4128 47.6318C32.4509 48.1012 31.7588 48.606 30.9296 49.443C28.8142 51.5784 27.5293 54.7506 27.377 58.2137C27.3566 58.6785 27.3258 59.1509 27.3086 59.2636C27.2726 59.4985 26.9727 59.8664 26.7044 60.0045C26.4574 60.1317 25.964 60.1276 25.6855 59.996C25.2309 59.7811 25.0831 59.3976 25.0831 58.4323C25.0831 57.5969 24.9425 56.1277 24.7646 55.1032C24.0104 50.7617 21.9652 46.6556 18.8702 43.269C18.5791 42.9506 18.3164 42.69 18.2863 42.69C18.2554 42.69 18.2245 51.1161 18.2154 62.0477C18.2015 78.7944 18.1871 81.4293 18.1084 81.5826C17.9301 81.9297 17.6621 82.0001 16.5202 82C15.6695 82 15.4596 81.9814 15.2805 81.8905Z" fill="black"/>
</svg>
