<svg width="20" height="58" viewBox="0 0 20 58" fill="none" xmlns="http://www.w3.org/2000/svg">
<path fill-rule="evenodd" clip-rule="evenodd" d="M0 17.1789L3.61345 15.9883V2.64115C3.7238 2.34122 3.7846 2.19444 4.22269 2.1261H4.83193H5.44118C5.89704 2.19384 5.99097 2.33267 6.05042 2.64115V15.1378L14.2857 12.4164L14.2815 0.515048C14.3919 0.215118 14.4527 0.0683381 14.8908 0H15.5H16.1092C16.5651 0.0677371 16.659 0.206573 16.7185 0.515048L16.7227 11.651L20 10.5455V19.39L16.7227 20.4956V33.0821L20 32.0616V40.8211L16.7227 41.9267L16.7227 55.2738C16.6632 55.5823 16.5693 55.7211 16.1134 55.7889H15.5042H14.895C14.4569 55.7205 14.3961 55.5737 14.2857 55.2738V42.6921L6.05042 45.4135V57.485C5.99097 57.7934 5.89704 57.9323 5.44118 58H4.83193H4.22269C3.7846 57.9317 3.7238 57.7849 3.61345 57.485V46.2639L0 47.4545V38.61L3.61345 37.4194V24.7478L0 25.9384V17.1789ZM6.05042 23.9824L14.2857 21.261V33.9325L6.05042 36.654V23.9824Z" fill="black"/>
</svg>
