<svg width="56" height="66" viewBox="0 0 56 66" fill="none" xmlns="http://www.w3.org/2000/svg">
<path fill-rule="evenodd" clip-rule="evenodd" d="M19.6334 1.00539C7.72652 1.29041 -1.39506 9.63757 1.56099 22.4365C1.5637 22.4501 1.57861 22.4637 1.58267 22.4772C1.92964 26.8883 5.59454 30.3629 10.0889 30.3629C14.8124 30.3629 18.6399 26.5355 18.6399 21.8122C18.6399 17.6318 15.6703 14.1572 11.7303 13.3972C10.1608 12.8407 7.80513 11.5784 7.90814 9.54256C7.95693 8.53819 9.13204 6.7059 11.0173 5.78297C13.3093 4.71073 15.6717 4.12709 18.0571 4.6157C21.6718 5.28076 30.9181 11.9313 31.6365 23.4545C32.0566 32.1952 27.1502 44.0169 22.3536 49.6088C14.6307 58.4446 2.22512 63.9279 3.43952 64.9052C4.52787 65.8824 19.1753 59.1775 26.8019 50.7625C36.1091 40.6645 40.7174 32.2495 40.2701 22.0293C40.0126 11.7956 32.0973 0.720363 19.6334 1.00539Z" fill="black"/>
<path fill-rule="evenodd" clip-rule="evenodd" d="M55 30.3453C55 31.9314 54.3318 33.4525 53.1424 34.574C51.9529 35.6955 50.3397 36.3255 48.6576 36.3255C46.9755 36.3255 45.3623 35.6955 44.1728 34.574C42.9834 33.4525 42.3152 31.9314 42.3152 30.3453C42.3152 28.7593 42.9834 27.2382 44.1728 26.1167C45.3623 24.9951 46.9755 24.3651 48.6576 24.3651C50.3397 24.3651 51.9529 24.9951 53.1424 26.1167C54.3318 27.2382 55 28.7593 55 30.3453Z" fill="black"/>
<path fill-rule="evenodd" clip-rule="evenodd" d="M55 10.0279C55 11.6139 54.3318 13.135 53.1424 14.2565C51.9529 15.378 50.3397 16.0081 48.6576 16.0081C46.9755 16.0081 45.3623 15.378 44.1728 14.2565C42.9834 13.135 42.3152 11.6139 42.3152 10.0279C42.3152 8.44179 42.9834 6.9207 44.1728 5.79919C45.3623 4.67768 46.9755 4.04762 48.6576 4.04762C50.3397 4.04762 51.9529 4.67768 53.1424 5.79919C54.3318 6.9207 55 8.44179 55 10.0279Z" fill="black"/>
<path fill-rule="evenodd" clip-rule="evenodd" d="M19.6334 1.00539C7.72652 1.29041 -1.39506 9.63757 1.56099 22.4365C1.5637 22.4501 1.57861 22.4637 1.58267 22.4772C1.92964 26.8883 5.59454 30.3629 10.0889 30.3629C14.8124 30.3629 18.6399 26.5355 18.6399 21.8122C18.6399 17.6318 15.6703 14.1572 11.7303 13.3972C10.1608 12.8407 7.80513 11.5784 7.90814 9.54256C7.95693 8.53819 9.13204 6.7059 11.0173 5.78297C13.3093 4.71073 15.6717 4.12709 18.0571 4.6157C21.6718 5.28076 30.9181 11.9313 31.6365 23.4545C32.0566 32.1952 27.1502 44.0169 22.3536 49.6088C14.6307 58.4446 2.22512 63.9279 3.43952 64.9052C4.52787 65.8824 19.1753 59.1775 26.8019 50.7625C36.1091 40.6645 40.7174 32.2495 40.2701 22.0293C40.0126 11.7956 32.0973 0.720363 19.6334 1.00539Z" stroke="black" stroke-width="0.45574"/>
<path fill-rule="evenodd" clip-rule="evenodd" d="M55 30.3453C55 31.9314 54.3318 33.4525 53.1424 34.574C51.9529 35.6955 50.3397 36.3255 48.6576 36.3255C46.9755 36.3255 45.3623 35.6955 44.1728 34.574C42.9834 33.4525 42.3152 31.9314 42.3152 30.3453C42.3152 28.7593 42.9834 27.2382 44.1728 26.1167C45.3623 24.9951 46.9755 24.3651 48.6576 24.3651C50.3397 24.3651 51.9529 24.9951 53.1424 26.1167C54.3318 27.2382 55 28.7593 55 30.3453Z" stroke="black" stroke-width="0.45574"/>
<path fill-rule="evenodd" clip-rule="evenodd" d="M55 10.0279C55 11.6139 54.3318 13.135 53.1424 14.2565C51.9529 15.378 50.3397 16.0081 48.6576 16.0081C46.9755 16.0081 45.3623 15.378 44.1728 14.2565C42.9834 13.135 42.3152 11.6139 42.3152 10.0279C42.3152 8.44179 42.9834 6.9207 44.1728 5.79919C45.3623 4.67768 46.9755 4.04762 48.6576 4.04762C50.3397 4.04762 51.9529 4.67768 53.1424 5.79919C54.3318 6.9207 55 8.44179 55 10.0279Z" stroke="black" stroke-width="0.45574"/>
</svg>
