<svg width="52" height="145" viewBox="0 0 52 145" fill="none" xmlns="http://www.w3.org/2000/svg">
<path fill-rule="evenodd" clip-rule="evenodd" d="M29.4321 79.8856C27.3066 80.4835 25.3902 81.82 23.6132 83.8598C21.8362 85.9348 20.9652 88.2209 20.9652 90.6827C20.9652 92.2302 21.4878 93.9887 22.4983 95.8527C23.5087 97.7518 25.0418 99.1235 27.0279 100.003C27.6899 100.143 28.0035 100.495 28.0035 100.987C28.0035 101.163 27.7596 101.339 27.1672 101.48C23.9965 100.671 21.3833 98.9476 19.3624 96.3802C17.3415 93.7777 16.2962 90.8234 16.2265 87.4471C16.331 83.8246 17.4112 80.4483 19.4669 77.3534C21.5575 74.2233 24.2404 72.0076 27.5157 70.7063L25.1115 58.2211C19.7456 62.7228 15.3902 67.4004 12.0105 72.3241C8.63066 77.2127 6.8885 82.5234 6.74913 88.256C6.81882 90.8234 7.34146 93.3205 8.31707 95.712C9.29268 98.1387 10.7561 100.319 12.7073 102.324C16.6446 106.298 21.7666 108.373 28.0035 108.584C30.1289 108.443 32.3937 108.057 34.8328 107.424L29.4321 79.8856ZM31.9408 79.5339L37.3763 106.579C42.7422 104.399 45.4251 99.651 45.4251 92.406C45.1115 89.9793 44.4146 87.7988 43.23 85.8645C42.0801 83.895 40.547 82.3475 38.5958 81.2221C36.6446 80.0967 34.4495 79.5339 31.9408 79.5339ZM24.7979 42.9575C25.9477 42.2541 27.2718 41.0231 28.7003 39.2998C30.1289 37.6117 31.5226 35.607 32.8467 33.3561C34.2056 31.0701 35.2857 28.7489 36.0871 26.3925C36.8885 24.0713 37.2718 21.8556 37.2718 19.8158C37.2718 18.9365 37.2021 18.0573 37.0279 17.2836C36.8885 16.0175 36.5052 15.0327 35.8432 14.3645C35.1812 13.7314 34.3449 13.3797 33.2997 13.3797C31.2091 13.3797 29.3275 14.681 27.6551 17.2836C26.3659 19.5344 25.2857 22.2073 24.5192 25.2319C23.7178 28.2917 23.2648 31.3163 23.1951 34.376C23.3693 37.8578 23.9268 40.7066 24.7979 42.9575ZM22.6028 44.9973C21.0348 39.2998 20.1638 33.4968 19.9895 27.5883C20.0244 23.79 20.4077 20.2378 21.1394 16.9319C21.8362 13.6259 22.8467 10.7772 24.1707 8.3153C25.4599 5.85342 26.9582 3.98942 28.6307 2.72332C30.1289 1.59788 31.2091 1 31.8014 1C32.2544 1 32.6376 1.17585 32.9861 1.49238C33.3345 1.8089 33.7875 2.33645 34.3449 3.03984C38.4913 8.98352 40.5819 16.1581 40.5819 24.5285C40.5819 28.5027 40.0592 32.3714 39.0139 36.24C38.0035 40.0735 36.5052 43.7312 34.5192 47.1426C32.4983 50.5893 30.1289 53.5787 27.3763 56.1461L30.1986 70.0029C31.7317 69.8271 32.777 69.6864 33.3693 69.6864C36.0174 69.6864 38.3868 70.2491 40.5819 71.3746C42.777 72.5 44.6585 74.0123 46.1916 75.9466C47.7247 77.8458 48.9094 80.0263 49.7456 82.4882C50.547 84.9501 51 87.5175 51 90.1904C51 94.3404 49.9199 98.1387 47.7596 101.55C45.5993 104.962 42.3589 107.459 38.0035 109.076C38.2822 110.8 38.77 113.297 39.5017 116.497C40.1986 119.733 40.7213 122.3 41.0697 124.199C41.4181 126.099 41.5575 127.927 41.5575 129.721C41.5575 132.5 40.8955 134.961 39.5714 137.142C38.2125 139.322 36.4007 141.011 34.101 142.206C31.8362 143.402 29.3275 144 26.6098 144C22.777 144 19.4321 142.91 16.5749 140.764C13.7178 138.584 12.1847 135.665 12.0453 131.937C12.1498 130.284 12.5331 128.736 13.23 127.259C13.9268 125.782 14.8676 124.586 16.0871 123.672C17.2718 122.722 18.7003 122.23 20.338 122.124C21.6969 122.124 22.9861 122.511 24.2056 123.25C25.3902 124.024 26.3659 125.044 27.0976 126.345C27.7944 127.646 28.1777 129.088 28.1777 130.636C28.1777 132.711 27.4808 134.469 26.0871 135.911C24.6934 137.353 22.9164 138.091 20.7909 138.091H19.9895C21.3484 140.202 23.5784 141.292 26.6794 141.292C28.2474 141.292 29.8502 140.94 31.453 140.307C33.0906 139.639 34.4495 138.76 35.5993 137.634C36.7491 136.509 37.5157 135.313 37.8293 134.047C38.4216 132.605 38.7003 130.6 38.7003 128.103C38.7003 126.415 38.5261 124.727 38.2125 123.039C37.899 121.386 37.4112 119.17 36.7491 116.427C36.0871 113.719 35.5993 111.609 35.3206 110.167C33.23 110.694 31.0697 110.976 28.8049 110.976C25.007 110.976 21.4181 110.202 18.0383 108.619C14.6585 107.037 11.6969 104.856 9.11847 102.043C6.57491 99.229 4.58885 96.0637 3.16028 92.4764C1.76655 88.9242 1.03484 85.1963 1 81.3276C1.13937 77.7403 1.80139 74.2937 3.05575 71.058C4.3101 67.7873 5.91289 64.6923 7.89895 61.8084C9.88502 58.9245 11.9408 56.2868 14.0662 53.9304C16.2265 51.6092 19.0488 48.6198 22.6028 44.9973Z" fill="black" stroke="black" stroke-width="0.647175"/>
</svg>
